<mxfile host="app.diagrams.net" modified="2023-03-26T14:56:42.496Z" agent="Mozilla/5.0 (Windows NT 10.0; Win64; x64) AppleWebKit/537.36 (KHTML, like Gecko) Chrome/111.0.0.0 Safari/537.36" etag="BCjqasvMdBj6LbJFhVbe" version="21.1.0" type="device">
  <diagram id="C5RBs43oDa-KdzZeNtuy" name="Page-1">
    <mxGraphModel dx="925" dy="493" grid="1" gridSize="10" guides="1" tooltips="1" connect="1" arrows="1" fold="1" page="1" pageScale="1" pageWidth="827" pageHeight="1169" math="0" shadow="0">
      <root>
        <mxCell id="WIyWlLk6GJQsqaUBKTNV-0" />
        <mxCell id="WIyWlLk6GJQsqaUBKTNV-1" parent="WIyWlLk6GJQsqaUBKTNV-0" />
        <mxCell id="dR-rQW1L00YQ3CzSb4jp-8" style="edgeStyle=orthogonalEdgeStyle;rounded=0;orthogonalLoop=1;jettySize=auto;html=1;entryX=0.5;entryY=0;entryDx=0;entryDy=0;" edge="1" parent="WIyWlLk6GJQsqaUBKTNV-1" source="WIyWlLk6GJQsqaUBKTNV-3" target="dR-rQW1L00YQ3CzSb4jp-3">
          <mxGeometry relative="1" as="geometry" />
        </mxCell>
        <mxCell id="WIyWlLk6GJQsqaUBKTNV-3" value="Define Constant&lt;br&gt;Values" style="rounded=1;whiteSpace=wrap;html=1;fontSize=12;glass=0;strokeWidth=1;shadow=0;" parent="WIyWlLk6GJQsqaUBKTNV-1" vertex="1">
          <mxGeometry x="160" y="80" width="120" height="40" as="geometry" />
        </mxCell>
        <mxCell id="dR-rQW1L00YQ3CzSb4jp-7" style="edgeStyle=orthogonalEdgeStyle;rounded=0;orthogonalLoop=1;jettySize=auto;html=1;entryX=0.5;entryY=0;entryDx=0;entryDy=0;endArrow=classic;endFill=1;" edge="1" parent="WIyWlLk6GJQsqaUBKTNV-1" source="dR-rQW1L00YQ3CzSb4jp-2" target="WIyWlLk6GJQsqaUBKTNV-3">
          <mxGeometry relative="1" as="geometry" />
        </mxCell>
        <mxCell id="dR-rQW1L00YQ3CzSb4jp-2" value="Start program" style="html=1;dashed=0;whiteSpace=wrap;shape=mxgraph.dfd.start" vertex="1" parent="WIyWlLk6GJQsqaUBKTNV-1">
          <mxGeometry x="160" width="120" height="40" as="geometry" />
        </mxCell>
        <mxCell id="dR-rQW1L00YQ3CzSb4jp-9" style="edgeStyle=orthogonalEdgeStyle;rounded=0;orthogonalLoop=1;jettySize=auto;html=1;entryX=0.5;entryY=0;entryDx=0;entryDy=0;" edge="1" parent="WIyWlLk6GJQsqaUBKTNV-1" source="dR-rQW1L00YQ3CzSb4jp-3" target="dR-rQW1L00YQ3CzSb4jp-4">
          <mxGeometry relative="1" as="geometry" />
        </mxCell>
        <mxCell id="dR-rQW1L00YQ3CzSb4jp-3" value="Define Variable&lt;br&gt;Values" style="rounded=1;whiteSpace=wrap;html=1;fontSize=12;glass=0;strokeWidth=1;shadow=0;" vertex="1" parent="WIyWlLk6GJQsqaUBKTNV-1">
          <mxGeometry x="160" y="160" width="120" height="40" as="geometry" />
        </mxCell>
        <mxCell id="dR-rQW1L00YQ3CzSb4jp-10" style="edgeStyle=orthogonalEdgeStyle;rounded=0;orthogonalLoop=1;jettySize=auto;html=1;entryX=0.5;entryY=0;entryDx=0;entryDy=0;" edge="1" parent="WIyWlLk6GJQsqaUBKTNV-1" source="dR-rQW1L00YQ3CzSb4jp-4" target="dR-rQW1L00YQ3CzSb4jp-5">
          <mxGeometry relative="1" as="geometry" />
        </mxCell>
        <mxCell id="dR-rQW1L00YQ3CzSb4jp-4" value="For Loop different&lt;br&gt;chord lengths" style="rounded=1;whiteSpace=wrap;html=1;fontSize=12;glass=0;strokeWidth=1;shadow=0;fillColor=#fff2cc;strokeColor=#d6b656;" vertex="1" parent="WIyWlLk6GJQsqaUBKTNV-1">
          <mxGeometry x="160" y="240" width="120" height="40" as="geometry" />
        </mxCell>
        <mxCell id="dR-rQW1L00YQ3CzSb4jp-11" style="edgeStyle=orthogonalEdgeStyle;rounded=0;orthogonalLoop=1;jettySize=auto;html=1;entryX=0.5;entryY=0;entryDx=0;entryDy=0;" edge="1" parent="WIyWlLk6GJQsqaUBKTNV-1" source="dR-rQW1L00YQ3CzSb4jp-5" target="dR-rQW1L00YQ3CzSb4jp-6">
          <mxGeometry relative="1" as="geometry" />
        </mxCell>
        <mxCell id="dR-rQW1L00YQ3CzSb4jp-34" style="edgeStyle=orthogonalEdgeStyle;rounded=0;orthogonalLoop=1;jettySize=auto;html=1;exitX=1;exitY=0.25;exitDx=0;exitDy=0;entryX=1;entryY=0.5;entryDx=0;entryDy=0;" edge="1" parent="WIyWlLk6GJQsqaUBKTNV-1" source="dR-rQW1L00YQ3CzSb4jp-5" target="dR-rQW1L00YQ3CzSb4jp-4">
          <mxGeometry relative="1" as="geometry" />
        </mxCell>
        <mxCell id="dR-rQW1L00YQ3CzSb4jp-5" value="For Loop different&lt;br&gt;twist angles&amp;nbsp;&lt;br&gt;(for every defined&amp;nbsp;&lt;br&gt;cross section)" style="rounded=1;whiteSpace=wrap;html=1;fontSize=12;glass=0;strokeWidth=1;shadow=0;fillColor=#fff2cc;strokeColor=#d6b656;" vertex="1" parent="WIyWlLk6GJQsqaUBKTNV-1">
          <mxGeometry x="160" y="320" width="120" height="70" as="geometry" />
        </mxCell>
        <mxCell id="dR-rQW1L00YQ3CzSb4jp-28" style="edgeStyle=orthogonalEdgeStyle;rounded=0;orthogonalLoop=1;jettySize=auto;html=1;entryX=0.5;entryY=0;entryDx=0;entryDy=0;" edge="1" parent="WIyWlLk6GJQsqaUBKTNV-1" source="dR-rQW1L00YQ3CzSb4jp-6" target="dR-rQW1L00YQ3CzSb4jp-13">
          <mxGeometry relative="1" as="geometry" />
        </mxCell>
        <mxCell id="dR-rQW1L00YQ3CzSb4jp-33" style="edgeStyle=orthogonalEdgeStyle;rounded=0;orthogonalLoop=1;jettySize=auto;html=1;exitX=1;exitY=0.25;exitDx=0;exitDy=0;entryX=1;entryY=0.75;entryDx=0;entryDy=0;" edge="1" parent="WIyWlLk6GJQsqaUBKTNV-1" source="dR-rQW1L00YQ3CzSb4jp-6" target="dR-rQW1L00YQ3CzSb4jp-5">
          <mxGeometry relative="1" as="geometry" />
        </mxCell>
        <mxCell id="dR-rQW1L00YQ3CzSb4jp-36" style="edgeStyle=orthogonalEdgeStyle;rounded=0;orthogonalLoop=1;jettySize=auto;html=1;entryX=0.5;entryY=0;entryDx=0;entryDy=0;" edge="1" parent="WIyWlLk6GJQsqaUBKTNV-1" source="dR-rQW1L00YQ3CzSb4jp-6" target="dR-rQW1L00YQ3CzSb4jp-35">
          <mxGeometry relative="1" as="geometry" />
        </mxCell>
        <mxCell id="dR-rQW1L00YQ3CzSb4jp-6" value="For Loop convergence&lt;br&gt;(until a1 and a2 stabilize)" style="rounded=1;whiteSpace=wrap;html=1;fontSize=12;glass=0;strokeWidth=1;shadow=0;fillColor=#fff2cc;strokeColor=#d6b656;" vertex="1" parent="WIyWlLk6GJQsqaUBKTNV-1">
          <mxGeometry x="160" y="440" width="120" height="80" as="geometry" />
        </mxCell>
        <mxCell id="dR-rQW1L00YQ3CzSb4jp-12" style="edgeStyle=orthogonalEdgeStyle;rounded=0;orthogonalLoop=1;jettySize=auto;html=1;entryX=0.5;entryY=0;entryDx=0;entryDy=0;" edge="1" parent="WIyWlLk6GJQsqaUBKTNV-1" source="dR-rQW1L00YQ3CzSb4jp-13" target="dR-rQW1L00YQ3CzSb4jp-15">
          <mxGeometry relative="1" as="geometry" />
        </mxCell>
        <mxCell id="dR-rQW1L00YQ3CzSb4jp-13" value="Compute inflow&lt;br&gt;angle" style="rounded=1;whiteSpace=wrap;html=1;fontSize=12;glass=0;strokeWidth=1;shadow=0;" vertex="1" parent="WIyWlLk6GJQsqaUBKTNV-1">
          <mxGeometry x="340" y="520" width="120" height="40" as="geometry" />
        </mxCell>
        <mxCell id="dR-rQW1L00YQ3CzSb4jp-14" style="edgeStyle=orthogonalEdgeStyle;rounded=0;orthogonalLoop=1;jettySize=auto;html=1;entryX=0.5;entryY=0;entryDx=0;entryDy=0;" edge="1" parent="WIyWlLk6GJQsqaUBKTNV-1" source="dR-rQW1L00YQ3CzSb4jp-15" target="dR-rQW1L00YQ3CzSb4jp-17">
          <mxGeometry relative="1" as="geometry" />
        </mxCell>
        <mxCell id="dR-rQW1L00YQ3CzSb4jp-15" value="Compute&amp;nbsp;&lt;br&gt;Resultant flow velocity" style="rounded=1;whiteSpace=wrap;html=1;fontSize=12;glass=0;strokeWidth=1;shadow=0;" vertex="1" parent="WIyWlLk6GJQsqaUBKTNV-1">
          <mxGeometry x="340" y="600" width="120" height="60" as="geometry" />
        </mxCell>
        <mxCell id="dR-rQW1L00YQ3CzSb4jp-16" style="edgeStyle=orthogonalEdgeStyle;rounded=0;orthogonalLoop=1;jettySize=auto;html=1;entryX=0.5;entryY=0;entryDx=0;entryDy=0;" edge="1" parent="WIyWlLk6GJQsqaUBKTNV-1" source="dR-rQW1L00YQ3CzSb4jp-17" target="dR-rQW1L00YQ3CzSb4jp-19">
          <mxGeometry relative="1" as="geometry" />
        </mxCell>
        <mxCell id="dR-rQW1L00YQ3CzSb4jp-17" value="Compute local &lt;br&gt;angle of attack" style="rounded=1;whiteSpace=wrap;html=1;fontSize=12;glass=0;strokeWidth=1;shadow=0;" vertex="1" parent="WIyWlLk6GJQsqaUBKTNV-1">
          <mxGeometry x="340" y="680" width="120" height="40" as="geometry" />
        </mxCell>
        <mxCell id="dR-rQW1L00YQ3CzSb4jp-18" style="edgeStyle=orthogonalEdgeStyle;rounded=0;orthogonalLoop=1;jettySize=auto;html=1;entryX=0.5;entryY=0;entryDx=0;entryDy=0;" edge="1" parent="WIyWlLk6GJQsqaUBKTNV-1" source="dR-rQW1L00YQ3CzSb4jp-19" target="dR-rQW1L00YQ3CzSb4jp-20">
          <mxGeometry relative="1" as="geometry" />
        </mxCell>
        <mxCell id="dR-rQW1L00YQ3CzSb4jp-19" value="Compute&lt;br&gt;coefficients of&amp;nbsp;&lt;br&gt;lift and drag&amp;nbsp;" style="rounded=1;whiteSpace=wrap;html=1;fontSize=12;glass=0;strokeWidth=1;shadow=0;" vertex="1" parent="WIyWlLk6GJQsqaUBKTNV-1">
          <mxGeometry x="340" y="760" width="120" height="70" as="geometry" />
        </mxCell>
        <mxCell id="dR-rQW1L00YQ3CzSb4jp-26" style="edgeStyle=orthogonalEdgeStyle;rounded=0;orthogonalLoop=1;jettySize=auto;html=1;entryX=0.5;entryY=0;entryDx=0;entryDy=0;" edge="1" parent="WIyWlLk6GJQsqaUBKTNV-1" source="dR-rQW1L00YQ3CzSb4jp-20" target="dR-rQW1L00YQ3CzSb4jp-22">
          <mxGeometry relative="1" as="geometry" />
        </mxCell>
        <mxCell id="dR-rQW1L00YQ3CzSb4jp-20" value="Compute &lt;br&gt;dT/dr and dQ/dr&lt;br&gt;(using BET)" style="rounded=1;whiteSpace=wrap;html=1;fontSize=12;glass=0;strokeWidth=1;shadow=0;" vertex="1" parent="WIyWlLk6GJQsqaUBKTNV-1">
          <mxGeometry x="340" y="880" width="120" height="70" as="geometry" />
        </mxCell>
        <mxCell id="dR-rQW1L00YQ3CzSb4jp-21" style="edgeStyle=orthogonalEdgeStyle;rounded=0;orthogonalLoop=1;jettySize=auto;html=1;entryX=0.5;entryY=0;entryDx=0;entryDy=0;" edge="1" parent="WIyWlLk6GJQsqaUBKTNV-1" source="dR-rQW1L00YQ3CzSb4jp-22" target="dR-rQW1L00YQ3CzSb4jp-24">
          <mxGeometry relative="1" as="geometry" />
        </mxCell>
        <mxCell id="dR-rQW1L00YQ3CzSb4jp-22" value="Compute a1" style="rounded=1;whiteSpace=wrap;html=1;fontSize=12;glass=0;strokeWidth=1;shadow=0;" vertex="1" parent="WIyWlLk6GJQsqaUBKTNV-1">
          <mxGeometry x="340" y="1000" width="120" height="40" as="geometry" />
        </mxCell>
        <mxCell id="dR-rQW1L00YQ3CzSb4jp-23" style="edgeStyle=orthogonalEdgeStyle;rounded=0;orthogonalLoop=1;jettySize=auto;html=1;entryX=0.5;entryY=0;entryDx=0;entryDy=0;" edge="1" parent="WIyWlLk6GJQsqaUBKTNV-1" source="dR-rQW1L00YQ3CzSb4jp-24" target="dR-rQW1L00YQ3CzSb4jp-25">
          <mxGeometry relative="1" as="geometry" />
        </mxCell>
        <mxCell id="dR-rQW1L00YQ3CzSb4jp-24" value="Compute a2" style="rounded=1;whiteSpace=wrap;html=1;fontSize=12;glass=0;strokeWidth=1;shadow=0;" vertex="1" parent="WIyWlLk6GJQsqaUBKTNV-1">
          <mxGeometry x="340" y="1080" width="120" height="40" as="geometry" />
        </mxCell>
        <mxCell id="dR-rQW1L00YQ3CzSb4jp-27" style="edgeStyle=orthogonalEdgeStyle;rounded=0;orthogonalLoop=1;jettySize=auto;html=1;entryX=1;entryY=0.75;entryDx=0;entryDy=0;" edge="1" parent="WIyWlLk6GJQsqaUBKTNV-1" source="dR-rQW1L00YQ3CzSb4jp-25" target="dR-rQW1L00YQ3CzSb4jp-6">
          <mxGeometry relative="1" as="geometry">
            <Array as="points">
              <mxPoint x="400" y="1210" />
              <mxPoint x="310" y="1210" />
              <mxPoint x="310" y="500" />
            </Array>
          </mxGeometry>
        </mxCell>
        <mxCell id="dR-rQW1L00YQ3CzSb4jp-25" value="Update new&lt;br&gt;a1 and a2" style="rounded=1;whiteSpace=wrap;html=1;fontSize=12;glass=0;strokeWidth=1;shadow=0;" vertex="1" parent="WIyWlLk6GJQsqaUBKTNV-1">
          <mxGeometry x="340" y="1140" width="120" height="50" as="geometry" />
        </mxCell>
        <mxCell id="dR-rQW1L00YQ3CzSb4jp-38" style="edgeStyle=orthogonalEdgeStyle;rounded=0;orthogonalLoop=1;jettySize=auto;html=1;entryX=0.5;entryY=0.5;entryDx=0;entryDy=-20;entryPerimeter=0;" edge="1" parent="WIyWlLk6GJQsqaUBKTNV-1" source="dR-rQW1L00YQ3CzSb4jp-35" target="dR-rQW1L00YQ3CzSb4jp-37">
          <mxGeometry relative="1" as="geometry" />
        </mxCell>
        <mxCell id="dR-rQW1L00YQ3CzSb4jp-35" value="Save Results&lt;br&gt;to CSV" style="rounded=1;whiteSpace=wrap;html=1;fontSize=12;glass=0;strokeWidth=1;shadow=0;" vertex="1" parent="WIyWlLk6GJQsqaUBKTNV-1">
          <mxGeometry x="160" y="565" width="120" height="40" as="geometry" />
        </mxCell>
        <mxCell id="dR-rQW1L00YQ3CzSb4jp-37" value="End program" style="html=1;dashed=0;whiteSpace=wrap;shape=mxgraph.dfd.start" vertex="1" parent="WIyWlLk6GJQsqaUBKTNV-1">
          <mxGeometry x="160" y="640" width="120" height="40" as="geometry" />
        </mxCell>
      </root>
    </mxGraphModel>
  </diagram>
</mxfile>
